<?xml version="1.0" encoding="UTF-8"?>
<svg xmlns="http://www.w3.org/2000/svg"
     width="512"
     height="512"
     viewBox="0 0 512 512">
  <path d="M 30 231 L 30 428 L 104 428 L 104 368 L 105 367 L 105 363 L 106 362 L 106 358 L 107 357 L 108 352 L 115 337 L 123 326 L 138 313 L 150 307 L 152 307 L 156 305 L 159 305 L 160 304 L 167 304 L 168 303 L 184 304 L 185 305 L 191 306 L 204 312 L 212 318 L 222 328 L 229 338 L 237 357 L 238 365 L 239 366 L 239 373 L 240 374 L 240 428 L 320 428 L 320 394 L 321 393 L 321 388 L 322 387 L 324 379 L 330 369 L 339 360 L 348 355 L 354 354 L 355 353 L 368 353 L 369 354 L 375 355 L 381 358 L 393 369 L 397 375 L 401 385 L 402 395 L 403 396 L 403 428 L 481 428 L 481 231 L 478 228 L 475 227 L 449 209 L 446 208 L 420 190 L 417 189 L 391 171 L 388 170 L 362 152 L 359 151 L 336 135 L 333 134 L 307 116 L 304 115 L 256 83 L 253 84 L 210 113 L 207 114 L 181 132 L 178 133 L 152 151 L 149 152 L 123 170 L 120 171 L 94 189 L 91 190 L 65 208 L 62 209 L 36 227 L 33 228 Z"
        fill="#000000"
        fill-rule="evenodd"/>
</svg>
