<?xml version="1.0" encoding="UTF-8"?>
<svg xmlns="http://www.w3.org/2000/svg"
     width="482"
     height="660"
     viewBox="0 0 482 660"
     role="img"
     aria-label="Sharpened blue pedestal silhouette">
  <path
    fill="#1479BC"
    d="
      M 166 51
      Q 151 51 145 63
      L 145 119
      Q 145 139 164 150
      L 184 150
      L 184 233
      L 88 233
      Q 67 233 61 252
      L 61 303
      Q 61 320 79 320
      L 176 320
      L 151 506
      L 84 506
      Q 62 506 56 527
      L 56 564
      Q 56 581 74 581
      L 408 581
      Q 426 581 426 564
      L 426 527
      Q 420 506 398 506
      L 331 506
      L 306 320
      L 403 320
      Q 421 320 421 303
      L 421 252
      Q 415 233 394 233
      L 298 233
      L 298 150
      L 318 150
      Q 337 139 337 119
      L 337 63
      Q 331 51 316 51
      Z
    "/>
</svg>
