<?xml version="1.0" encoding="UTF-8"?>
<svg xmlns="http://www.w3.org/2000/svg"
     width="454"
     height="518"
     viewBox="0 0 454 518"
     role="img"
     aria-label="Sharpened blue rounded silhouette">
  <path
    fill="#1479BC"
    d="
      M 198 31
      C 184 35, 176 47, 176 63
      L 176 82
      L 153 82
      L 143 72
      L 118 72
      L 101 83
      L 101 135
      L 113 150
      L 158 150
      L 158 185
      L 142 202

      C 94 216, 59 252, 47 299
      C 42 320, 40 348, 40 381
      L 40 411
      L 53 423
      L 81 423
      L 81 462
      L 94 477
      L 176 477
      L 190 463
      L 190 432
      L 216 432
      L 216 463
      L 231 477
      L 320 477
      L 334 462
      L 334 423
      L 382 423
      L 395 411
      L 395 381

      C 395 347, 392 320, 386 298
      C 374 252, 340 216, 293 202
      L 276 185
      L 276 150
      L 322 150
      L 334 138
      L 334 84
      L 319 73
      L 294 73
      L 283 83
      L 258 83
      L 258 62
      C 258 45, 247 32, 231 29
      C 220 27, 208 27, 198 31
      Z
    "/>
</svg>
