<?xml version="1.0" encoding="UTF-8"?>
<svg xmlns="http://www.w3.org/2000/svg"
     width="470"
     height="500"
     viewBox="0 0 470 500"
     role="img"
     aria-label="Sharpened blue angular silhouette">
  <path
    fill="#1479BC"
    d="
      M 193 47
      C 183 52, 179 61, 179 72
      L 179 91
      L 165 91
      L 151 107
      L 151 171
      L 112 171
      L 97 183
      L 56 225
      L 48 247
      L 67 266
      L 103 274
      L 103 320
      L 85 372
      L 57 389
      L 77 410
      L 91 410
      L 91 444
      L 106 458
      L 198 458
      L 214 442
      L 214 420
      L 235 409
      L 255 420
      L 255 442
      L 270 458
      L 364 458
      L 379 443
      L 379 410
      L 394 410
      L 414 389
      L 386 372
      L 367 320
      L 367 274
      L 403 266
      L 422 247
      L 414 225
      L 372 183
      L 358 171
      L 319 171
      L 319 107
      L 305 91
      L 291 91
      L 291 72
      C 291 60, 287 52, 277 47
      C 254 39, 216 39, 193 47
      Z
    "/>
</svg>
