<?xml version="1.0" encoding="UTF-8"?>
<svg xmlns="http://www.w3.org/2000/svg"
     width="512"
     height="512"
     viewBox="0 0 512 512">
  <path d="M 28 226 L 28 236 L 29 237 L 29 240 L 30 241 L 31 246 L 33 249 L 33 251 L 35 253 L 37 258 L 41 264 L 52 277 L 52 278 L 82 307 L 102 322 L 108 328 L 109 331 L 118 343 L 130 355 L 140 362 L 150 367 L 153 367 L 154 368 L 167 368 L 171 366 L 177 360 L 181 350 L 181 347 L 182 346 L 182 341 L 183 340 L 183 326 L 184 325 L 186 325 L 187 326 L 192 326 L 193 327 L 198 327 L 199 328 L 204 328 L 205 329 L 211 329 L 212 330 L 218 330 L 219 331 L 233 331 L 234 332 L 254 331 L 255 330 L 264 330 L 265 329 L 272 329 L 273 328 L 281 328 L 282 327 L 284 327 L 285 328 L 286 338 L 287 339 L 287 342 L 288 343 L 290 351 L 297 363 L 302 367 L 307 369 L 316 369 L 324 366 L 336 357 L 341 352 L 342 352 L 375 319 L 375 318 L 390 303 L 390 302 L 402 290 L 402 289 L 418 273 L 424 270 L 432 264 L 456 252 L 469 248 L 476 244 L 480 239 L 480 237 L 482 233 L 482 227 L 483 226 L 483 202 L 481 199 L 478 199 L 477 198 L 462 199 L 461 200 L 456 200 L 455 201 L 438 202 L 437 203 L 427 201 L 422 197 L 417 189 L 417 187 L 415 183 L 415 180 L 414 179 L 414 176 L 411 168 L 404 160 L 398 157 L 390 157 L 389 158 L 387 158 L 376 166 L 366 177 L 353 172 L 350 172 L 342 169 L 335 168 L 328 165 L 324 165 L 316 162 L 313 162 L 308 160 L 304 160 L 299 158 L 295 158 L 294 157 L 291 157 L 286 155 L 282 155 L 277 153 L 267 152 L 266 151 L 262 151 L 261 150 L 256 150 L 255 149 L 251 149 L 250 148 L 238 147 L 237 146 L 231 146 L 230 145 L 223 145 L 222 144 L 214 144 L 213 143 L 202 143 L 201 142 L 161 142 L 160 143 L 143 144 L 142 145 L 138 145 L 137 146 L 133 146 L 132 147 L 127 147 L 126 148 L 111 151 L 110 152 L 96 156 L 93 158 L 91 158 L 69 169 L 54 180 L 42 193 L 33 208 L 33 210 L 29 220 L 29 225 Z"
        fill="#000000"
        fill-rule="evenodd"/>
</svg>
