<?xml version="1.0" encoding="UTF-8"?>
<svg xmlns="http://www.w3.org/2000/svg"
     width="612"
     height="570"
     viewBox="0 0 612 570"
     role="img"
     aria-label="Sharpened blue rounded silhouette">
  <path
    fill="#1479BC"
    d="
      M 242 43
      Q 231 49 231 64
      L 231 145
      L 190 145
      Q 176 145 165 154
      L 111 198
      Q 99 208 99 222
      L 99 238
      Q 99 251 112 251
      L 177 251
      L 177 291
      L 142 320
      Q 107 350 86 393
      Q 66 434 62 480
      L 62 502
      Q 62 516 77 516
      L 236 516
      L 267 478
      L 267 429
      L 315 429
      L 315 478
      L 346 516
      L 535 516
      Q 550 516 550 502
      L 550 480
      Q 546 434 526 393
      Q 505 350 470 320
      L 435 291
      L 435 251
      L 500 251
      Q 513 251 513 238
      L 513 222
      Q 513 208 501 198
      L 447 154
      Q 436 145 422 145
      L 381 145
      L 381 64
      Q 381 49 370 43
      Z
    "/>
</svg>
