<?xml version="1.0" encoding="utf-8"?>
<!-- Uploaded to: SVG Repo, www.svgrepo.com, Generator: SVG Repo Mixer Tools -->
<svg fill="#000000" height="800px" width="800px" version="1.1" id="Layer_1" xmlns="http://www.w3.org/2000/svg" xmlns:xlink="http://www.w3.org/1999/xlink" 
	 viewBox="0 0 256 256" xml:space="preserve">
<g>
	<path d="M95.8,128.4c0-9.5-7.7-17.2-17.2-17.2c-9.5,0-17.2,7.7-17.2,17.2c0,9.5,7.7,17.2,17.2,17.2
		C88.1,145.6,95.8,137.9,95.8,128.4z"/>
	<path d="M134.1,128.4c0-9.5-7.7-17.2-17.2-17.2c-9.5,0-17.2,7.7-17.2,17.2c0,9.5,7.7,17.2,17.2,17.2
		C126.4,145.6,134.1,137.9,134.1,128.4z"/>
	<path d="M138.4,128.4c0,9.5,7.7,17.2,17.2,17.2c9.5,0,17.2-7.7,17.2-17.2c0-9.5-7.7-17.2-17.2-17.2
		C146.1,111.2,138.4,118.9,138.4,128.4z"/>
	<path d="M194.9,111.2c-9.5,0-17.2,7.7-17.2,17.2c0,9.5,7.7,17.2,17.2,17.2c9.5,0,17.2-7.7,17.2-17.2
		C212.1,118.9,204.4,111.2,194.9,111.2z"/>
	<path d="M114.5,162.9c0-9.5-7.7-17.2-17.2-17.2c-9.5,0-17.2,7.7-17.2,17.2c0,9.5,7.7,17.2,17.2,17.2
		C106.7,180.1,114.5,172.4,114.5,162.9z"/>
	<path d="M136,180.1c9.5,0,17.2-7.7,17.2-17.2c0-9.5-7.7-17.2-17.2-17.2c-9.5,0-17.2,7.7-17.2,17.2
		C118.8,172.4,126.5,180.1,136,180.1z"/>
	<path d="M136,214.5c-9.5,0-17.2,7.7-17.2,17.2c0,9.5,7.7,17.2,17.2,17.2c9.5,0,17.2-7.7,17.2-17.2
		C153.2,222.2,145.5,214.5,136,214.5z"/>
	<path d="M133.8,197.3c0-9.5-7.7-17.2-17.2-17.2c-9.5,0-17.2,7.7-17.2,17.2c0,9.5,7.7,17.2,17.2,17.2
		C126.1,214.5,133.8,206.8,133.8,197.3z"/>
	<path d="M155.4,180.1c-9.5,0-17.2,7.7-17.2,17.2c0,9.5,7.7,17.2,17.2,17.2c9.5,0,17.2-7.7,17.2-17.2
		C172.6,187.8,164.9,180.1,155.4,180.1z"/>
	<path d="M175.2,145.6c-9.5,0-17.2,7.7-17.2,17.2c0,9.5,7.7,17.2,17.2,17.2c9.5,0,17.2-7.7,17.2-17.2
		C192.5,153.3,184.8,145.6,175.2,145.6z"/>
	<path d="M63.5,107.1c17.1,0.6,33-18.8,33-18.8v-0.4c0,0,4.9,6.2,15,7.9c0,0,8.1-15.4-1.9-27.6h22.3v38.5v4.3h11.1v-3.9V39.5
		c0-11.6,9.4-21,21-21V7.4c-17.6,0-32.1,14.3-32.1,32.1V57h-15.2c9.4-7.9,8.6-21.2,8.6-21.2c-9.8-2.8-16.9,0.6-16.9,0.6V36
		c0,0-6.2-24.4-21.8-31c-15,16.1-9.2,38.7-9.2,38.7c-18-23.1-46.7,2.4-46.7,2.4s15,35.3,41.1,21.8C71.6,67.9,56.7,86.1,63.5,107.1z"
		/>
</g>
</svg>