<?xml version="1.0" encoding="UTF-8"?>
<svg xmlns="http://www.w3.org/2000/svg"
     viewBox="0 0 512 512"
     width="512"
     height="512"
     role="img"
     aria-label="Pointed crown inside a castle keep">

  <!-- Castle keep -->
  <path
    d="
      M64 72
      H144
      V128
      H208
      V72
      H304
      V128
      H368
      V72
      H448
      V176
      L408 216
      V440
      H104
      V216
      L64 176
      Z
    "
    fill="#D6B370"
    stroke="#6B4423"
    stroke-width="24"
    stroke-linejoin="round"
  />

  <!-- Crown -->
  <path transform="translate(128 150) scale(.5)" d="M 38 132 L 39 133 L 40 152 L 41 153 L 41 161 L 42 162 L 43 181 L 44 182 L 44 190 L 45 191 L 45 200 L 46 201 L 46 209 L 47 210 L 48 229 L 49 230 L 49 238 L 50 239 L 50 248 L 51 249 L 51 257 L 52 258 L 52 267 L 53 268 L 53 276 L 54 277 L 54 286 L 55 287 L 55 296 L 56 297 L 56 305 L 57 306 L 57 315 L 58 316 L 58 324 L 59 325 L 59 334 L 60 335 L 60 344 L 61 345 L 61 353 L 62 354 L 62 363 L 63 364 L 64 379 L 447 379 L 448 364 L 449 363 L 449 354 L 450 353 L 450 345 L 451 344 L 451 335 L 452 334 L 452 325 L 453 324 L 453 316 L 454 315 L 454 306 L 455 305 L 455 297 L 456 296 L 456 287 L 457 286 L 457 277 L 458 276 L 458 268 L 459 267 L 459 258 L 460 257 L 460 249 L 461 248 L 462 229 L 463 228 L 463 220 L 464 219 L 464 210 L 465 209 L 465 201 L 466 200 L 467 181 L 468 180 L 468 172 L 469 171 L 469 162 L 470 161 L 470 153 L 471 152 L 472 133 L 473 132 L 472 132 L 470 137 L 468 139 L 466 144 L 464 146 L 453 167 L 451 169 L 449 174 L 447 176 L 445 181 L 443 183 L 441 188 L 439 190 L 437 195 L 435 197 L 433 202 L 431 204 L 429 209 L 427 211 L 425 216 L 423 218 L 416 232 L 414 234 L 412 239 L 410 241 L 408 246 L 406 248 L 404 253 L 402 255 L 394 270 L 392 269 L 392 265 L 391 264 L 391 260 L 390 259 L 388 245 L 386 240 L 386 236 L 385 235 L 385 231 L 384 230 L 382 216 L 380 211 L 380 207 L 379 206 L 379 202 L 378 201 L 376 187 L 374 182 L 374 178 L 373 177 L 373 173 L 372 172 L 372 168 L 371 167 L 371 163 L 370 162 L 370 158 L 368 153 L 368 149 L 367 148 L 367 144 L 366 143 L 366 139 L 365 138 L 365 134 L 364 132 L 359 142 L 359 144 L 354 153 L 354 155 L 350 162 L 350 164 L 345 173 L 345 175 L 341 182 L 341 184 L 337 191 L 337 193 L 332 202 L 332 204 L 328 211 L 328 213 L 324 220 L 324 222 L 319 231 L 319 233 L 315 240 L 315 242 L 310 251 L 310 253 L 306 260 L 306 262 L 303 268 L 301 270 L 300 269 L 300 267 L 297 260 L 297 257 L 296 256 L 296 254 L 295 253 L 295 251 L 294 250 L 294 248 L 293 247 L 293 245 L 292 244 L 292 242 L 291 241 L 291 239 L 290 238 L 290 236 L 289 235 L 289 233 L 288 232 L 288 230 L 280 208 L 280 205 L 279 204 L 279 202 L 278 201 L 278 199 L 277 198 L 277 196 L 276 195 L 276 193 L 275 192 L 275 190 L 274 189 L 274 187 L 273 186 L 273 184 L 272 183 L 272 181 L 271 180 L 271 178 L 270 177 L 270 175 L 262 153 L 262 150 L 261 149 L 256 132 L 255 132 L 255 134 L 247 156 L 247 159 L 246 160 L 246 162 L 245 163 L 245 165 L 244 166 L 244 168 L 243 169 L 243 171 L 242 172 L 242 174 L 241 175 L 241 177 L 240 178 L 240 180 L 239 181 L 239 183 L 238 184 L 238 186 L 237 187 L 237 189 L 236 190 L 236 192 L 235 193 L 235 195 L 234 196 L 234 198 L 233 199 L 233 201 L 232 202 L 232 204 L 224 226 L 224 229 L 223 230 L 223 232 L 222 233 L 211 268 L 209 270 L 147 132 L 146 134 L 146 138 L 145 139 L 145 143 L 144 144 L 144 148 L 142 153 L 142 157 L 141 158 L 139 172 L 137 177 L 137 181 L 136 182 L 134 196 L 132 201 L 132 205 L 131 206 L 129 220 L 127 225 L 127 229 L 126 230 L 124 244 L 122 249 L 122 253 L 121 254 L 119 268 L 117 270 L 113 264 L 110 257 L 108 255 L 106 250 L 104 248 L 102 243 L 100 241 L 98 236 L 96 234 L 89 220 L 87 218 L 85 213 L 83 211 L 81 206 L 79 204 L 77 199 L 75 197 L 64 176 L 62 174 L 60 169 L 58 167 L 56 162 L 54 160 L 52 155 L 50 153 L 39 132 Z"
        fill="#7A7F85"
        fill-rule="evenodd"/>
</svg>
