<?xml version="1.0" encoding="iso-8859-1"?>
<!-- Uploaded to: SVG Repo, www.svgrepo.com, Generator: SVG Repo Mixer Tools -->
<!DOCTYPE svg PUBLIC "-//W3C//DTD SVG 1.1//EN" "http://www.w3.org/Graphics/SVG/1.1/DTD/svg11.dtd">
<svg fill="#000000" version="1.1" id="Capa_1" xmlns="http://www.w3.org/2000/svg" xmlns:xlink="http://www.w3.org/1999/xlink" 
	 width="800px" height="800px" viewBox="0 0 70.099 70.099"
	 xml:space="preserve">
<g>
	<path d="M64.987,52.078c0.014-0.404,0.023-0.805,0.055-1.123c0.086-0.869,0-2.162-0.35-3.131c-0.349-0.948-0.349-1.643-0.951-2.327
		c-0.609-0.694,0-1.917,0.086-3.035c0.086-1.13-0.168-1.992,0-2.861c0.175-0.869,0.605-1.902,1.215-3.285
		c0.603-1.39,0-5.299-0.432-6.68c-0.438-1.384,0.082-1.731,0.346-2.081c0.264-0.344,0.605-2.423,0.605-2.945s0.609-2.95,1.123-3.722
		c0.521-0.78,0.178-1.826-0.171-2.599c-0.343-0.782-0.171-3.901-0.432-4.683c-0.257-0.78-1.472-0.78-2.255-0.258
		c-0.777,0.519-3.987,3.297-4.938,4.163c-0.951,0.862-6.413,6.242-7.282,6.665c-0.869,0.438-0.432,1.822-0.171,2.691
		c0.212,0.712,1.663,18.874,2.169,25.214H37.57c-0.239-5.681-0.926-21.286-1.256-23.756c-0.416-3.031-0.519-7.534-0.519-8.494
		c0-0.946,0-3.287-0.719-3.381c-0.717-0.082-1.334-0.597-1.743,0c-0.417,0.609-6.589,6.849-6.897,7.625
		c-0.301,0.785-0.301,1.826-0.405,2.863c-0.103,1.04,0.717,21.483,0.616,22.352c-0.053,0.424,0,1.652,0.063,2.789H13.445
		l-1.692-21.163c0,0-0.084-1.122-0.459-1.615c-0.371-0.491-0.477-0.404-1.598-0.404c-1.123,0-5.149,3.08-5.149,3.08
		s-0.275,0.799-0.301,2.026c-0.007,0.944,0.729,12.86,1.056,18.076H0v5.037h70.099v-5.037H64.987z"/>
</g>
</svg>