<?xml version="1.0" encoding="UTF-8"?>
<svg xmlns="http://www.w3.org/2000/svg"
     width="512"
     height="512"
     viewBox="0 0 512 512">
  <path d="M 248 443 L 248 445 L 250 448 L 250 450 L 252 453 L 252 455 L 254 458 L 254 460 L 256 463 L 256 465 L 258 468 L 258 470 L 260 473 L 260 475 L 262 478 L 264 485 L 265 486 L 277 486 L 277 468 L 278 467 L 278 462 L 279 461 L 279 456 L 280 455 L 281 443 Z M 89 425 L 91 435 L 92 436 L 93 445 L 95 450 L 95 454 L 96 455 L 96 459 L 97 460 L 97 464 L 98 465 L 99 472 L 104 481 L 106 483 L 107 486 L 119 486 L 119 483 L 118 482 L 118 479 L 116 474 L 116 450 L 118 447 L 118 445 L 120 442 L 120 440 L 122 436 L 112 433 L 109 431 Z M 26 283 L 26 286 L 25 287 L 25 295 L 26 296 L 26 299 L 29 305 L 33 310 L 29 318 L 29 320 L 27 324 L 27 327 L 26 328 L 26 333 L 25 334 L 25 345 L 26 346 L 26 352 L 27 353 L 27 358 L 28 359 L 28 364 L 29 365 L 29 370 L 30 371 L 32 388 L 33 389 L 33 393 L 34 394 L 34 399 L 35 400 L 35 405 L 36 406 L 36 411 L 37 412 L 37 417 L 38 418 L 38 423 L 39 424 L 39 429 L 40 430 L 40 435 L 41 436 L 41 441 L 42 442 L 42 447 L 43 448 L 43 453 L 44 454 L 44 459 L 45 460 L 46 470 L 47 471 L 47 473 L 56 486 L 68 486 L 66 476 L 65 475 L 65 450 L 67 447 L 67 445 L 69 442 L 69 440 L 71 437 L 71 435 L 73 432 L 73 430 L 75 427 L 75 425 L 77 422 L 79 415 L 82 411 L 96 415 L 99 417 L 101 417 L 102 418 L 104 418 L 105 419 L 107 419 L 108 420 L 110 420 L 111 421 L 113 421 L 135 429 L 139 429 L 140 430 L 144 430 L 145 431 L 153 431 L 154 432 L 193 432 L 193 417 L 195 412 L 202 405 L 213 405 L 214 406 L 206 414 L 204 418 L 204 422 L 203 423 L 204 424 L 204 434 L 205 435 L 205 445 L 206 446 L 207 467 L 208 468 L 208 473 L 209 474 L 212 485 L 213 486 L 225 486 L 225 470 L 227 467 L 232 451 L 234 448 L 235 443 L 240 432 L 295 432 L 296 431 L 306 431 L 307 430 L 311 430 L 312 429 L 317 429 L 318 428 L 325 427 L 326 426 L 337 423 L 347 418 L 349 418 L 358 413 L 360 411 L 363 410 L 365 408 L 368 407 L 370 405 L 370 381 L 366 379 L 364 380 L 362 383 L 353 379 L 349 378 L 327 339 L 328 337 L 332 337 L 339 334 L 347 325 L 348 319 L 349 318 L 349 290 L 348 290 L 327 311 L 311 319 L 309 319 L 306 321 L 303 321 L 284 314 L 281 314 L 274 311 L 271 311 L 270 310 L 264 309 L 260 307 L 257 307 L 253 305 L 242 303 L 241 302 L 231 300 L 230 299 L 226 299 L 221 297 L 217 297 L 216 296 L 213 296 L 208 294 L 204 294 L 199 292 L 189 291 L 188 290 L 178 289 L 177 288 L 172 288 L 171 287 L 166 287 L 165 286 L 160 286 L 159 285 L 145 284 L 144 283 L 135 283 L 134 282 L 123 282 L 122 281 L 79 281 L 78 282 L 73 282 L 72 283 L 65 284 L 52 290 L 46 294 L 38 303 L 34 297 L 34 295 L 33 294 L 33 288 L 37 280 L 42 276 L 47 274 L 47 267 L 43 267 L 35 271 L 29 277 Z M 322 372 L 321 373 L 312 373 L 304 366 L 305 365 L 311 365 L 312 364 L 319 364 L 321 363 L 322 364 Z M 155 83 L 112 168 L 112 169 L 139 169 L 140 170 L 140 272 L 143 272 L 144 273 L 152 273 L 153 274 L 159 274 L 160 275 L 166 275 L 167 276 L 172 276 L 173 277 L 178 277 L 179 278 L 184 278 L 185 279 L 189 279 L 190 280 L 194 280 L 195 281 L 209 283 L 214 285 L 218 285 L 219 286 L 222 286 L 227 288 L 227 217 L 228 216 L 369 216 L 370 217 L 370 342 L 457 342 L 457 170 L 458 169 L 486 169 L 453 103 L 451 101 L 443 84 L 441 82 L 298 25 L 295 27 L 293 27 L 290 29 L 288 29 L 285 31 L 283 31 L 280 33 L 278 33 L 275 35 L 273 35 L 270 37 L 268 37 L 265 39 L 258 41 L 253 44 L 251 44 L 248 46 L 246 46 L 243 48 L 241 48 L 238 50 L 236 50 L 233 52 L 231 52 L 228 54 L 226 54 L 223 56 L 221 56 L 218 58 L 216 58 L 213 60 L 211 60 L 208 62 L 206 62 L 203 64 L 201 64 L 198 66 L 196 66 L 193 68 L 191 68 L 188 70 L 186 70 L 183 72 L 181 72 L 178 74 L 176 74 L 173 76 L 171 76 L 168 78 L 166 78 Z M 281 134 L 282 133 L 316 133 L 317 134 L 317 168 L 316 169 L 282 169 L 281 168 Z"
        fill="#000000"
        fill-rule="evenodd"/>
</svg>
