<?xml version="1.0" encoding="UTF-8"?>

<svg
    xmlns="http://www.w3.org/2000/svg"
    viewBox="0 530 846.66 296.66"
>
    <!-- Hull -->
<path
    id="hull"
    fill="#000000"
    d="
        M27.57 550.06
        l791.52 0
        c11.5 0 20.83 9.33 20.83 20.84
        c0 129.55 -105.92 235.47 -235.48 235.47
        l-362.22 0
        c-129.55 0 -235.48 -105.91 -235.48 -235.47
        c0 -11.51 9.33 -20.84 20.83 -20.84
        z
    "
/>

<!-- White interior -->
<path
    id="hull-interior"
    fill="#ffffff"
    d="
        M49.53 591.73
        c10.58 97.81 94.12 172.98 192.69 172.98
        l362.22 0
        c98.57 0 182.11 -75.17 192.69 -172.98
        z
    "
/>

<!-- Black stripe -->
<path
    id="hull-detail"
    fill="#000000"
    d="
        M187.93 699.05
        c-27.4 0 -27.4 -41.66 0 -41.66
        l470.8 0
        c27.4 0 27.4 41.66 0 41.66
        l-470.8 0
        z
    "
/>
</svg>