<?xml version="1.0" encoding="UTF-8"?>
<svg xmlns="http://www.w3.org/2000/svg"
     width="512"
     height="512"
     viewBox="0 0 512 512">
  <path d="M 376 306 L 374 307 L 372 310 L 372 319 L 375 323 L 381 323 L 383 321 L 383 319 L 384 318 L 384 311 L 382 307 L 380 306 Z M 131 306 L 128 308 L 128 310 L 127 311 L 127 319 L 130 323 L 136 323 L 139 319 L 139 311 L 137 307 L 135 306 Z M 377 272 L 375 273 L 372 277 L 372 285 L 375 289 L 379 290 L 381 289 L 384 285 L 384 277 L 381 273 Z M 132 272 L 130 273 L 127 277 L 127 285 L 130 289 L 134 290 L 136 289 L 139 285 L 139 277 L 136 273 Z M 253 192 L 250 195 L 250 206 L 253 209 L 258 209 L 261 206 L 261 195 L 258 192 Z M 253 51 L 250 54 L 250 132 L 243 141 L 237 151 L 234 154 L 228 164 L 225 167 L 221 174 L 218 177 L 196 210 L 193 213 L 182 230 L 180 232 L 178 232 L 176 230 L 145 183 L 143 182 L 138 182 L 134 186 L 106 229 L 103 232 L 93 247 L 93 253 L 97 257 L 97 353 L 96 354 L 93 350 L 88 340 L 88 338 L 82 325 L 82 322 L 79 315 L 79 312 L 78 311 L 78 308 L 76 303 L 76 298 L 75 297 L 75 293 L 74 292 L 74 284 L 73 283 L 73 245 L 74 244 L 74 238 L 75 237 L 76 227 L 77 226 L 79 215 L 80 214 L 84 200 L 96 175 L 107 158 L 114 150 L 114 149 L 120 143 L 120 142 L 131 131 L 132 131 L 140 123 L 152 114 L 163 108 L 165 106 L 193 93 L 195 93 L 205 89 L 208 89 L 211 86 L 211 80 L 209 78 L 204 77 L 200 79 L 197 79 L 196 80 L 191 81 L 188 83 L 178 86 L 153 99 L 125 120 L 111 134 L 111 135 L 105 141 L 105 142 L 98 150 L 88 165 L 77 186 L 77 188 L 71 201 L 71 203 L 69 207 L 69 210 L 67 214 L 67 217 L 65 222 L 65 226 L 64 227 L 64 231 L 63 232 L 63 237 L 62 238 L 62 245 L 61 246 L 61 282 L 62 283 L 63 298 L 64 299 L 64 303 L 65 304 L 65 308 L 66 309 L 68 320 L 69 321 L 72 332 L 74 335 L 75 340 L 81 351 L 81 353 L 83 355 L 86 362 L 88 364 L 92 372 L 103 387 L 119 404 L 119 405 L 120 405 L 129 414 L 130 414 L 139 422 L 154 432 L 159 434 L 161 436 L 179 445 L 181 445 L 184 447 L 186 447 L 189 449 L 191 449 L 198 452 L 201 452 L 202 453 L 205 453 L 206 454 L 209 454 L 214 456 L 218 456 L 219 457 L 224 457 L 225 458 L 230 458 L 231 459 L 239 459 L 240 460 L 271 460 L 272 459 L 280 459 L 281 458 L 292 457 L 293 456 L 297 456 L 298 455 L 313 452 L 314 451 L 322 449 L 325 447 L 327 447 L 330 445 L 332 445 L 350 436 L 352 434 L 355 433 L 357 431 L 360 430 L 369 424 L 381 414 L 382 414 L 403 393 L 403 392 L 414 379 L 425 362 L 434 344 L 434 342 L 436 339 L 436 337 L 441 326 L 441 323 L 442 322 L 442 320 L 444 316 L 444 313 L 445 312 L 445 309 L 446 308 L 446 304 L 447 303 L 447 299 L 448 298 L 448 292 L 449 291 L 449 283 L 450 282 L 450 250 L 449 249 L 449 241 L 448 240 L 447 228 L 446 227 L 445 219 L 442 211 L 442 208 L 441 207 L 440 202 L 438 199 L 437 194 L 435 191 L 435 189 L 425 169 L 423 167 L 421 162 L 415 153 L 404 140 L 404 139 L 397 132 L 397 131 L 381 116 L 379 115 L 374 116 L 371 120 L 372 124 L 378 130 L 379 130 L 397 149 L 397 150 L 404 158 L 415 175 L 426 198 L 427 203 L 430 209 L 430 212 L 432 216 L 432 219 L 433 220 L 433 223 L 435 228 L 435 233 L 436 234 L 436 239 L 437 240 L 437 247 L 438 248 L 438 283 L 437 284 L 437 291 L 436 292 L 435 303 L 434 304 L 432 315 L 431 316 L 427 330 L 421 342 L 421 344 L 415 354 L 414 353 L 414 257 L 418 253 L 419 250 L 418 249 L 418 247 L 408 232 L 405 229 L 377 186 L 373 182 L 368 182 L 366 183 L 335 230 L 333 232 L 331 232 L 261 132 L 261 112 L 262 111 L 267 110 L 268 109 L 277 108 L 282 106 L 291 105 L 296 103 L 300 103 L 305 101 L 314 100 L 319 98 L 328 97 L 333 95 L 337 95 L 342 93 L 350 92 L 353 90 L 354 88 L 354 84 L 352 81 L 350 81 L 349 80 L 346 80 L 345 79 L 342 79 L 341 78 L 338 78 L 337 77 L 334 77 L 329 75 L 325 75 L 324 74 L 321 74 L 320 73 L 317 73 L 316 72 L 313 72 L 312 71 L 309 71 L 304 69 L 300 69 L 299 68 L 296 68 L 295 67 L 292 67 L 291 66 L 288 66 L 283 64 L 279 64 L 278 63 L 263 60 L 261 58 L 261 54 L 258 51 Z M 255 314 L 257 315 L 262 315 L 268 318 L 276 327 L 278 332 L 278 337 L 279 338 L 279 446 L 278 447 L 274 447 L 273 448 L 238 448 L 237 447 L 233 447 L 232 446 L 232 336 L 236 325 L 243 318 L 249 315 L 254 315 Z M 401 256 L 402 257 L 402 375 L 396 383 L 374 405 L 355 419 L 354 418 L 354 257 L 355 256 Z M 110 256 L 156 256 L 157 257 L 157 418 L 156 419 L 143 410 L 127 395 L 126 395 L 115 383 L 109 375 L 109 257 Z M 170 244 L 177 244 L 178 245 L 178 257 L 182 260 L 205 260 L 207 259 L 210 255 L 210 245 L 211 244 L 218 244 L 219 245 L 219 256 L 220 258 L 223 260 L 247 260 L 251 256 L 251 245 L 252 244 L 259 244 L 260 245 L 260 256 L 261 258 L 264 260 L 288 260 L 290 259 L 292 256 L 292 245 L 293 244 L 300 244 L 301 245 L 301 255 L 305 260 L 329 260 L 333 257 L 333 245 L 334 244 L 341 244 L 342 245 L 342 426 L 341 427 L 320 437 L 318 437 L 311 440 L 308 440 L 304 442 L 293 444 L 292 445 L 290 444 L 290 332 L 289 331 L 288 325 L 283 316 L 277 310 L 271 306 L 266 304 L 263 304 L 262 303 L 248 303 L 240 306 L 238 308 L 235 309 L 227 317 L 222 327 L 222 330 L 221 331 L 221 444 L 219 445 L 218 444 L 207 442 L 203 440 L 200 440 L 199 439 L 191 437 L 179 431 L 177 431 L 171 428 L 169 426 L 169 245 Z M 370 199 L 372 200 L 388 225 L 391 228 L 401 243 L 400 244 L 355 244 L 354 243 L 354 235 L 351 232 L 349 232 L 348 231 Z M 141 199 L 163 231 L 162 232 L 160 232 L 157 235 L 157 243 L 156 244 L 111 244 L 110 243 L 122 225 L 125 222 L 139 200 Z M 189 240 L 196 231 L 202 221 L 205 218 L 209 211 L 212 208 L 218 198 L 221 195 L 243 162 L 246 159 L 252 149 L 256 146 L 259 149 L 265 159 L 268 162 L 272 169 L 275 172 L 281 182 L 284 185 L 290 195 L 293 198 L 299 208 L 302 211 L 306 218 L 309 221 L 315 231 L 322 240 L 322 247 L 321 248 L 314 248 L 313 247 L 313 236 L 310 232 L 284 232 L 282 233 L 280 237 L 280 247 L 279 248 L 273 248 L 272 247 L 272 236 L 271 234 L 268 232 L 242 232 L 239 236 L 239 247 L 238 248 L 232 248 L 231 247 L 231 237 L 229 233 L 227 232 L 201 232 L 198 236 L 198 247 L 197 248 L 190 248 L 189 247 Z M 261 73 L 262 72 L 265 72 L 266 73 L 269 73 L 270 74 L 273 74 L 274 75 L 277 75 L 282 77 L 286 77 L 287 78 L 290 78 L 291 79 L 294 79 L 295 80 L 298 80 L 299 81 L 302 81 L 307 83 L 311 83 L 312 84 L 315 84 L 320 86 L 319 87 L 310 88 L 305 90 L 296 91 L 291 93 L 282 94 L 281 95 L 273 96 L 272 97 L 268 97 L 267 98 L 262 99 L 261 98 Z"
        fill="#000000"
        fill-rule="evenodd"/>
</svg>
