<?xml version="1.0" encoding="UTF-8"?>
<svg xmlns="http://www.w3.org/2000/svg"
     width="1094"
     height="544"
     viewBox="0 0 1094 544"
     role="img"
     aria-label="Sharpened blue stegosaurus silhouette">
  <path
    fill="#1479BC"
    d="
      M 54 109
      Q 44 118 44 137
      L 44 171
      Q 46 191 64 207
      L 87 222
      L 193 222
      Q 234 222 251 253
      Q 268 284 268 337
      Q 268 381 244 413
      L 226 436
      L 226 493
      L 397 493
      L 418 450
      L 495 450
      L 566 493
      L 688 493
      L 711 451
      L 796 451
      Q 864 445 915 406
      Q 964 369 1001 306
      L 1026 306
      L 1046 321
      L 1057 309
      L 1057 208
      L 1039 198
      L 965 216
      L 931 246
      L 931 285
      L 900 285
      L 875 274
      L 843 288
      L 814 320
      L 788 294
      L 764 279
      L 735 291
      L 714 320
      Q 694 261 664 213
      Q 633 163 579 130
      L 579 55
      L 552 42
      Q 510 57 474 91
      Q 436 126 411 176
      L 391 202
      L 352 166
      L 328 121
      L 293 98
      L 274 42
      L 248 30
      L 222 71
      L 191 95
      L 90 95
      Q 69 96 54 109
      Z
    "/>
</svg>
