<?xml version="1.0" encoding="UTF-8"?>
<svg xmlns="http://www.w3.org/2000/svg"
     width="80"
     height="80"
     viewBox="0 0 80 80">
  <path d="M 0 11 L 0 22 L 3 25 L 3 39 L 2 40 L 2 58 L 1 59 L 1 69 L 79 69 L 79 38 L 76 38 L 75 37 L 75 33 L 76 32 L 78 32 L 78 29 L 76 26 L 76 24 L 75 23 L 75 21 L 74 20 L 74 19 L 73 18 L 73 16 L 71 13 L 44 13 L 42 16 L 42 18 L 40 21 L 40 23 L 39 24 L 39 26 L 37 29 L 37 32 L 39 32 L 40 33 L 40 37 L 39 38 L 28 38 L 27 37 L 27 25 L 30 22 L 30 11 L 24 11 L 24 14 L 23 15 L 19 15 L 18 14 L 18 11 L 12 11 L 12 14 L 11 15 L 7 15 L 6 14 L 6 11 Z"
        fill="#000000"
        fill-rule="evenodd"/>
</svg>
