<?xml version="1.0" encoding="UTF-8"?>
<svg xmlns="http://www.w3.org/2000/svg"
     width="80"
     height="80"
     viewBox="0 0 80 80">
  <path
    d="
      M 37 1
      Q 35 2 34 5
      Q 32 9 31.5 14
      Q 30 20 30.5 25
      Q 31 29 32 32
      Q 32.5 33.5 31 34
      L 20 34
      Q 17 34 16 37
      L 16 41
      Q 16 44 19 44
      L 27 44
      Q 29.5 44 29 46
      Q 27.5 53 26 58
      Q 24 66 21 74
      Q 19.5 78 22 79
      L 57 79
      Q 59.5 78 58 74
      Q 55 66 54 59
      Q 52.5 53 51 46
      Q 50.5 44 53 44
      L 60 44
      Q 63 44 63 41
      L 63 37
      Q 63 34 60 34
      L 49 34
      Q 47.5 33.5 48 32
      Q 49 29 48.5 25
      Q 49 20 48 14
      Q 47.5 9 46 5
      Q 45 2 42 1
      Z
    "
    fill="#FFFFFF"
    stroke="#000000"
    stroke-width="2"
    stroke-linejoin="round"
    stroke-linecap="round"
  />
</svg>