<?xml version="1.0" encoding="UTF-8"?>
<svg xmlns="http://www.w3.org/2000/svg"
     width="608"
     height="838"
     viewBox="0 0 608 838"
     role="img"
     aria-label="Sharpened blue silhouette">
  <path
    fill="#1479BC"
    d="
      M 282 39
      C 258 48, 238 65, 224 88
      C 215 103, 212 124, 212 150
      L 203 160
      L 146 149
      L 136 156
      L 135 169
      L 172 208
      L 174 234
      L 140 289
      L 134 388
      L 83 489
      L 71 547
      L 59 670
      L 67 678
      L 109 676
      L 124 697
      L 112 743
      L 76 790
      L 84 802
      L 244 801
      L 264 788
      L 292 733
      L 312 730
      L 341 788
      L 362 801
      L 524 801
      L 530 786
      L 493 741
      L 481 696
      L 498 676
      L 540 677
      L 548 668
      L 535 546
      L 508 453
      L 475 399
      L 466 290
      L 432 234
      L 435 206
      L 472 168
      L 461 149
      L 403 160
      L 394 149
      C 394 123, 391 103, 382 87
      C 369 64, 350 48, 330 41
      C 314 35, 298 35, 282 39
      Z
    "/>
</svg>
