<?xml version="1.0" encoding="utf-8"?>
<!-- Uploaded to: SVG Repo, www.svgrepo.com, Generator: SVG Repo Mixer Tools -->
<svg fill="#000000" width="800px" height="800px" viewBox="0 0 32 32" version="1.1" xmlns="http://www.w3.org/2000/svg">
<title>perspective-dice-one</title>
<path d="M27.111 8.247l-9.531-5.514c-0.895-0.518-2.346-0.518-3.241 0l-9.531 5.514c-0.61 0.353-0.804 0.856-0.582 1.304l11.291 6.447c0.27 0.031 0.548 0.033 0.819 0.007l11.385-6.515c0.176-0.432-0.026-0.906-0.609-1.243zM17.397 9.982c-0.779 0.462-2.041 0.462-2.82 0s-0.779-1.211 0-1.673 2.041-0.462 2.82 0c0.779 0.462 0.779 1.211 0 1.673zM27.424 10.14l-10.366 5.932c-0.365 0.36-0.669 0.831-0.861 1.322v11.721c0.281 0.394 0.803 0.467 1.401 0.122l9.168-5.294c0.895-0.517 1.621-1.774 1.621-2.808v-9.84c0-0.763-0.396-1.191-0.963-1.155zM20.092 17.199c0.002 0.861-0.626 1.923-1.401 2.372s-1.405 0.116-1.407-0.745c0-0.002 0-0.004 0-0.006-0.002-0.861 0.626-1.923 1.401-2.372s1.405-0.116 1.407 0.745c0 0.002 0 0.004 0 0.006zM27.081 20.821c0.002 0.861-0.626 1.923-1.401 2.372s-1.405 0.116-1.407-0.745c0-0.002 0-0.004 0-0.006-0.002-0.861 0.626-1.923 1.401-2.372s1.405-0.116 1.407 0.745c0 0.002 0 0.004 0 0.006zM15.645 17.134c-0.165-0.345-0.383-0.671-0.635-0.944l-10.597-6.051c-0.504 0.027-0.846 0.446-0.846 1.156v9.84c0 1.034 0.726 2.291 1.621 2.808l9.168 5.294c0.525 0.303 0.992 0.284 1.289 0.008v-12.111h-0zM7.682 14.791c-0.002 0.861-0.631 1.194-1.407 0.745s-1.403-1.511-1.401-2.372c0-0.002 0-0.004 0-0.006 0.002-0.861 0.631-1.194 1.407-0.745s1.403 1.511 1.401 2.372c0 0.002 0 0.004 0 0.006zM11.176 20.615c-0.002 0.861-0.631 1.194-1.407 0.745s-1.403-1.511-1.401-2.372c0-0.002 0-0.004 0-0.006 0.002-0.861 0.631-1.194 1.407-0.745s1.403 1.511 1.401 2.372c0 0.002 0 0.004 0 0.006zM14.671 26.483c-0.002 0.861-0.631 1.194-1.407 0.745s-1.403-1.511-1.401-2.372c0-0.002 0-0.004 0-0.006 0.002-0.861 0.631-1.194 1.407-0.745s1.403 1.511 1.401 2.372c0 0.002 0 0.004 0 0.006z"></path>
</svg>