<?xml version="1.0" encoding="UTF-8"?>
<svg xmlns="http://www.w3.org/2000/svg"
     width="80"
     height="80"
     viewBox="0 0 80 80">
  <path d="M 19 0 L 19 11 L 20 12 L 20 17 L 24 17 L 25 18 L 25 29 L 24 30 L 24 57 L 23 58 L 23 79 L 56 79 L 56 56 L 55 55 L 55 29 L 54 28 L 54 18 L 55 17 L 59 17 L 59 13 L 60 12 L 60 0 L 54 0 L 54 3 L 53 4 L 49 4 L 48 3 L 48 0 L 43 0 L 43 3 L 42 4 L 37 4 L 36 3 L 36 0 L 31 0 L 31 3 L 30 4 L 26 4 L 25 3 L 25 0 Z"
        fill="#000000"
        fill-rule="evenodd"/>
</svg>
