<?xml version="1.0" ?>
<!-- Uploaded to: SVG Repo, www.svgrepo.com, Generator: SVG Repo Mixer Tools -->
<svg fill="#000000" width="800px" height="800px" viewBox="0 0 64 64" version="1.1" xml:space="preserve" xmlns="http://www.w3.org/2000/svg" xmlns:xlink="http://www.w3.org/1999/xlink">
<g id="Layer_2"/>
<g id="Layer_3"/>
<g id="Layer_4"/>
<g id="Layer_5"/>
<g id="Layer_6"/>
<g id="Layer_7">
<path d="M61,39.45H33V27.78h18.28c0.4,0,0.77-0.24,0.92-0.62c0.15-0.37,0.07-0.8-0.22-1.09L32.71,6.79   c-0.09-0.09-0.19-0.15-0.3-0.2c-0.03-0.01-0.06-0.02-0.1-0.03c-0.08-0.03-0.16-0.04-0.25-0.05c-0.03,0-0.07-0.01-0.1-0.01   c-0.11,0-0.21,0.02-0.31,0.06c-0.01,0-0.02,0-0.03,0.01c0,0,0,0,0,0c-0.11,0.05-0.21,0.12-0.29,0.2c-0.01,0.01-0.02,0.01-0.03,0.02   L6.21,31.87C5.93,32.16,5.84,32.59,6,32.96c0.15,0.37,0.52,0.62,0.92,0.62H31v5.88H3c-0.55,0-1,0.45-1,1   c0,9.4,7.65,17.04,17.04,17.04h25.91c9.4,0,17.04-7.65,17.04-17.04C62,39.9,61.55,39.45,61,39.45z M33,25.78V9.91l15.87,15.87H33z    M9.33,31.58L31,9.91v21.67H9.33z M44.96,55.5H19.04c-7.96,0-14.49-6.21-15.01-14.04h27.95c0.01,0,0.01,0,0.02,0s0.01,0,0.02,0   h27.95C59.45,49.28,52.92,55.5,44.96,55.5z"/>
</g>
<g id="Layer_8"/>
<g id="Layer_9"/>
<g id="Layer_10"/>
<g id="Layer_11"/>
<g id="Layer_12"/>
</svg>