<?xml version="1.0" encoding="iso-8859-1"?>
<!-- Uploaded to: SVG Repo, www.svgrepo.com, Generator: SVG Repo Mixer Tools -->
<!DOCTYPE svg PUBLIC "-//W3C//DTD SVG 1.1//EN" "http://www.w3.org/Graphics/SVG/1.1/DTD/svg11.dtd">
<svg fill="#000000" height="800px" width="800px" version="1.1" id="Capa_1" xmlns="http://www.w3.org/2000/svg" xmlns:xlink="http://www.w3.org/1999/xlink" 
	 viewBox="0 0 475.04 475.04" xml:space="preserve">
<path d="M474.057,208.305c-1.334-2.342-3.822-3.788-6.517-3.788H336.118l-26.626-52.53c-1.704-3.361-5.152-5.479-8.92-5.479h-22.808
	c-7.041,0-11.877,7.082-9.314,13.64l17.339,44.369H117.02l0-38.099c0-2.696-1.447-5.185-3.79-6.518
	c-2.343-1.334-5.221-1.308-7.54,0.068l-75.03,44.548H7.5c-4.142,0-7.5,3.357-7.5,7.5v85.15c0,0.516,0.053,1.029,0.159,1.534
	c3.611,17.284,19.049,29.83,36.708,29.83h239.293c39.848,0,79.213-10.425,113.838-30.148c34.625-19.723,63.67-48.266,83.994-82.541
	C475.366,213.524,475.391,210.647,474.057,208.305z M102.02,179.593l0,24.924H60.043L102.02,179.593z M276.159,313.532H36.866
	c-10.354,0-19.437-7.189-21.866-17.196v-22.311h344.854c4.142,0,7.5-3.357,7.5-7.5s-3.358-7.5-7.5-7.5H15v-39.508h17.713
	c0.005,0,0.01,0.001,0.015,0.001c0.005,0,0.01-0.001,0.014-0.001l421.138,0.001C414.117,277.826,347.208,313.532,276.159,313.532z"
	/>
</svg>