<?xml version="1.0" ?>
<!DOCTYPE svg  PUBLIC '-//W3C//DTD SVG 1.1//EN'  'http://www.w3.org/Graphics/SVG/1.1/DTD/svg11.dtd'>
<!-- Uploaded to: SVG Repo, www.svgrepo.com, Generator: SVG Repo Mixer Tools -->
<svg fill="#000000" width="800px" height="800px" viewBox="0 0 846.66 846.66" style="shape-rendering:geometricPrecision; text-rendering:geometricPrecision; image-rendering:optimizeQuality; fill-rule:evenodd; clip-rule:evenodd" version="1.1" xml:space="preserve" xmlns="http://www.w3.org/2000/svg" xmlns:xlink="http://www.w3.org/1999/xlink">
<defs>
<style type="text/css">
   <![CDATA[
    .fil0 {fill:black;fill-rule:nonzero}
   ]]>
  </style>
</defs>
<g id="Layer_x0020_1">
<path class="fil0" d="M27.57 550.06l791.52 0c11.5,0 20.83,9.33 20.83,20.84 0,129.55 -105.92,235.47 -235.48,235.47l-362.22 0c-129.55,0 -235.48,-105.91 -235.48,-235.47 0,-11.51 9.33,-20.84 20.83,-20.84zm160.36 148.99c-27.4,0 -27.4,-41.66 0,-41.66l470.8 0c27.4,0 27.4,41.66 0,41.66l-470.8 0zm100.53 -566.02l-205.3 325.36 205.3 0 0 -325.36zm-260.58 335.12l262.98 -416.75c10.03,-19.02 39.27,-12.04 39.27,9.7l0 418.12c0,11.5 -9.33,20.83 -20.83,20.83l-263.84 -0.06c-16.07,0.01 -26.35,-17.9 -17.58,-31.84zm366.09 -421.11l439.44 417.12c13.68,13.02 4.19,35.83 -14.32,35.84l-440.48 0.05c-11.5,0 -20.83,-9.33 -20.83,-20.83l0 -418.12c0,-19.12 23.53,-27.89 36.19,-14.06zm372.99 411.35l-367.52 -348.87 0 348.87 367.52 0zm30.17 133.34l-747.6 0c10.58,97.81 94.12,172.98 192.69,172.98l362.22 0c98.57,0 182.11,-75.17 192.69,-172.98z"/>
</g>
</svg>