<?xml version="1.0" encoding="utf-8"?><!-- Uploaded to: SVG Repo, www.svgrepo.com, Generator: SVG Repo Mixer Tools -->
<svg width="800px" height="800px" viewBox="0 0 400 400" fill="none" xmlns="http://www.w3.org/2000/svg">
<path opacity="0.503384" d="M249.254 133.737C257.533 124.25 264.324 113.472 272.678 104.061C279.186 96.7244 286.098 89.752 292.555 82.3447C299.026 74.9232 320.429 57.6411 323.076 76.5541C326.71 102.473 281.907 136.408 281.907 143.144C281.907 143.702 313.865 133.945 317.397 140.251C323.938 151.922 311.529 162.842 302.494 167.758C297.608 170.415 282.959 169.554 286.876 173.549C292.319 179.098 306.369 185.366 291.846 190.921" stroke="#000000" stroke-opacity="0.9" stroke-width="14" stroke-linecap="round" stroke-linejoin="round"/>
<path opacity="0.503384" d="M173.826 116.485C163.764 95.4008 102.95 48.2834 79.6999 77.0594C67.4388 92.2316 108.714 126.11 118.795 132.973C124.229 136.671 142.798 137.94 136.901 140.856C127.808 145.36 112.757 136.32 103.593 140.856C92.7554 146.221 111.806 170.63 125.636 168.432" stroke="#000000" stroke-opacity="0.9" stroke-width="14" stroke-linecap="round" stroke-linejoin="round"/>
<path d="M163.066 177.406C163.102 174.918 178.76 158.283 178.538 146.218C178.317 134.153 176.823 78.1014 217.343 76.3601C261.257 74.4728 248.51 135.713 254.373 154.013C260.235 172.313 258.329 168.381 258.202 169.082" stroke="#000000" stroke-opacity="0.9" stroke-width="16" stroke-linecap="round" stroke-linejoin="round"/>
<path d="M235.784 123.582C234.483 129.46 226.216 141.876 214.607 141.876C207.565 141.876 196.346 133.036 195.536 120.144" stroke="#000000" stroke-opacity="0.9" stroke-width="16" stroke-linecap="round" stroke-linejoin="round"/>
<path d="M237.927 92.0183C232.134 105.885 226.289 105.885 217.484 105.885C208.679 105.885 200.606 114.251 196.345 120.145" stroke="#000000" stroke-opacity="0.9" stroke-width="16" stroke-linecap="round" stroke-linejoin="round"/>
<path d="M133.676 207.798C150.669 201.42 161.424 196.046 165.939 191.676C170.454 187.306 182.181 177.518 201.121 162.313C193.282 193.159 182.776 219.814 169.604 242.276C165.98 248.455 176.09 246.096 199.932 235.2C207.24 237.06 212.483 238.488 215.661 239.485C218.72 240.44 222.825 239.012 227.976 235.2C244.913 250.52 253.381 252.879 253.381 242.276C253.381 205.718 227.976 197.054 232.309 160.195L256.711 190.476C259.441 193.43 264.871 196.848 273.001 200.733" stroke="#000000" stroke-opacity="0.9" stroke-width="16" stroke-linecap="round" stroke-linejoin="round"/>
<path d="M239.23 245.377C221.199 270.157 196.765 284.875 173.824 301.269" stroke="#000000" stroke-opacity="0.9" stroke-width="16" stroke-linecap="round" stroke-linejoin="round"/>
<path d="M201.402 237.016C211.423 273.167 195.5 302.172 182.204 332" stroke="#000000" stroke-opacity="0.9" stroke-width="16" stroke-linecap="round" stroke-linejoin="round"/>
</svg>