<?xml version="1.0" encoding="utf-8"?>
<!-- Uploaded to: SVG Repo, www.svgrepo.com, Generator: SVG Repo Mixer Tools -->
<svg fill="#000000" version="1.1" id="Layer_1" xmlns="http://www.w3.org/2000/svg" xmlns:xlink="http://www.w3.org/1999/xlink" 
	 width="800px" height="800px" viewBox="0 0 260 174" enable-background="new 0 0 260 174" xml:space="preserve">
<path d="M197.431,130.744c4.695,0,8.502,3.8,8.502,8.487c0,4.687-3.806,8.487-8.502,8.487s-8.502-3.8-8.502-8.487
	C188.929,134.543,192.736,130.744,197.431,130.744z M34.647,130.744c4.695,0,8.502,3.8,8.502,8.487c0,4.687-3.806,8.487-8.502,8.487
	s-8.502-3.8-8.502-8.487C26.145,134.543,29.952,130.744,34.647,130.744z M256.528,79.442c-1.952-1.949-5.12-1.949-7.072,0
	l-11.824,11.804l-16.666-25.637L119.641,2.589c-2.345-1.458-5.429-0.743-6.889,1.597c-1.461,2.34-0.744,5.42,1.6,6.877
	l98.023,60.966L18,72v12h8v24c-13.829,3.793-24.007,16.226-24.007,31.232c0,18.003,14.613,32.601,32.657,32.601
	c18.034,0,32.657-14.598,32.657-32.601c0-7.215-2.353-13.88-6.329-19.281h110.125c-3.975,5.401-6.326,12.066-6.326,19.281
	c0,18.003,14.613,32.601,32.657,32.601c18.034,0,32.657-14.598,32.657-32.601c0-7.405-2.478-14.229-6.646-19.701l33.084-33.028
	C258.482,84.553,258.482,81.392,256.528,79.442z M34.65,159.611c-11.272,0-20.414-9.126-20.414-20.38
	c0-11.253,9.142-20.38,20.414-20.38c11.272,0,20.404,9.126,20.404,20.38C55.054,150.485,45.923,159.611,34.65,159.611z M206,84h8
	V73.167l16.402,25.299l-14.155,14.132c-3.064-2.16-6.53-3.755-10.247-4.764V84z M197.434,159.611
	c-11.272,0-20.414-9.126-20.414-20.38c0-11.253,9.142-20.38,20.414-20.38c11.272,0,20.404,9.126,20.404,20.38
	C217.838,150.485,208.706,159.611,197.434,159.611z"/>
</svg>