<?xml version="1.0" encoding="iso-8859-1"?>
<!-- Uploaded to: SVG Repo, www.svgrepo.com, Generator: SVG Repo Mixer Tools -->
<!DOCTYPE svg PUBLIC "-//W3C//DTD SVG 1.1//EN" "http://www.w3.org/Graphics/SVG/1.1/DTD/svg11.dtd">
<svg fill="#000000" version="1.1" id="Capa_1" xmlns="http://www.w3.org/2000/svg" xmlns:xlink="http://www.w3.org/1999/xlink" 
	 width="800px" height="800px" viewBox="0 0 70.099 70.099"
	 xml:space="preserve">
<g>
	<path d="M48.591,21.554L40.135,9.39H29.747l-8.451,12.164v3.956h27.295V21.554z M29.867,11.111h10.121v1.281H29.867V11.111z
		 M28.224,13.873H41.63v1.292H28.224V13.873z M26.095,16.645h17.66v1.292h-17.66V16.645z M45.918,20.708H23.941v-1.293h21.977
		V20.708L45.918,20.708z M67.958,55.473c-0.035-0.096-0.068-0.216-0.11-0.321c-0.212-0.654-0.417-0.654-0.523-0.952
		c-0.099-0.328,0.523-1.827-0.099-2.039c-0.647-0.219-0.647,0.103-1.51,0.103c-0.855,0-0.646-0.646-0.746-1.506
		c-0.109-0.849-1.078-0.318-1.386-0.417c-0.328-0.11-0.219-3.433-0.541-4.169c-0.15-0.355-0.554-0.28-0.958-0.123V32.896h-8.993
		v5.134h-0.537v-4.812H17.549v4.815h-0.532v-5.137H8.025v13.148c-0.4-0.157-0.816-0.223-0.963,0.123
		c-0.32,0.746-0.21,4.059-0.534,4.165c-0.322,0.103-1.285-0.432-1.395,0.417c-0.101,0.862,0.109,1.506-0.746,1.506
		s-0.855-0.321-1.496-0.1c-0.642,0.216,0,1.708-0.109,2.04c-0.104,0.308-0.322,0.308-0.532,0.948
		c-0.043,0.116-0.074,0.226-0.113,0.321H0v5.243h70.099v-5.243h-2.142V55.473z M20.336,55.473h-3.319V43.276h3.319V55.473z
		 M29.215,55.473h-5.347V43.276h5.351L29.215,55.473L29.215,55.473z M37.671,55.473h-4.923V43.276h4.923V55.473z M46.233,55.473
		h-5.041V43.276h5.041V55.473z M53.084,55.473h-3.323V43.276h3.323V55.473z M53.194,26.252H16.803v5.989h36.391V26.252z"/>
</g>
</svg>