<?xml version="1.0" encoding="iso-8859-1"?>
<!-- Uploaded to: SVG Repo, www.svgrepo.com, Generator: SVG Repo Mixer Tools -->
<svg fill="#000000" height="800px" width="800px" version="1.1" id="Layer_1" xmlns="http://www.w3.org/2000/svg" xmlns:xlink="http://www.w3.org/1999/xlink" 
	 viewBox="0 0 512 512" xml:space="preserve">
<g>
	<g>
		<g>
			<path d="M423.735,371.91c-4.171-1.704-8.515-3.311-12.941-4.87c-39.357,15.347-89.359,23.724-142.05,23.724
				c-1.292,0-2.581-0.005-3.876-0.015c-57.896-0.45-110.762-10.738-149.956-28.22c-9.364,2.83-18.271,5.96-26.644,9.381
				c-38.759,15.83-61.896,36.743-61.896,55.941c0,19.198,23.139,40.11,61.896,55.939C132.805,501.981,192.375,512,256,512
				s123.195-10.018,167.733-28.21c38.759-15.83,61.896-36.742,61.896-55.939C485.633,408.653,462.494,387.74,423.735,371.91z"/>
			<path d="M253.401,358.162c52.421,0.429,101.822-7.95,138.974-23.537c31.958-13.405,51.338-31.202,51.843-47.603
				c0.236-7.661-3.508-15.559-11.127-23.478c-28.111-29.217-98.234-49.246-174.489-49.839c-1.22-0.01-2.443-0.015-3.66-0.015
				c-51.1,0-99.026,8.328-135.314,23.551c-31.956,13.407-51.336,31.202-51.841,47.605c-0.236,7.661,3.506,15.559,11.124,23.477
				C107.021,337.542,177.143,357.571,253.401,358.162z"/>
			<path d="M256.002,193.323c90.905,0,148.917-29.717,148.917-50.174c0-20.459-58.012-50.176-148.917-50.176
				c-90.906,0-148.918,29.717-148.918,50.176S165.095,193.323,256.002,193.323z"/>
			<path d="M202.989,49.863c11.401,10.441,32.088,16.245,53.989,15.124c35.836-1.818,60.173-20.288,59.601-35.725
				c-0.179-4.859-2.724-9.571-7.562-14.002C298.546,5.67,280.241,0,260.359,0c-1.768,0-3.546,0.044-5.335,0.135
				c-35.834,1.82-60.171,20.289-59.599,35.725C195.606,40.722,198.149,45.433,202.989,49.863z"/>
		</g>
	</g>
</g>
</svg>