<?xml version="1.0" encoding="UTF-8"?>
<svg xmlns="http://www.w3.org/2000/svg"
     width="80"
     height="80"
     viewBox="0 0 80 80">
  <path d="M 16 0 L 16 1 L 14 3 L 14 4 L 13 5 L 13 7 L 11 10 L 11 12 L 10 13 L 10 15 L 9 16 L 9 19 L 8 20 L 8 24 L 7 25 L 6 25 L 6 79 L 72 79 L 72 23 L 70 20 L 70 18 L 69 17 L 69 14 L 67 11 L 67 9 L 65 6 L 65 4 L 64 3 L 63 0 L 61 0 L 60 1 L 60 2 L 57 7 L 57 9 L 56 10 L 56 12 L 55 13 L 55 15 L 54 16 L 54 18 L 53 19 L 53 22 L 52 23 L 52 27 L 51 28 L 51 46 L 50 47 L 49 46 L 49 45 L 44 40 L 43 40 L 41 38 L 37 38 L 35 40 L 34 40 L 30 44 L 30 45 L 29 46 L 28 45 L 28 29 L 27 28 L 27 25 L 26 24 L 26 20 L 25 19 L 25 17 L 24 16 L 24 14 L 23 13 L 23 11 L 20 6 L 20 4 L 19 3 L 18 0 Z"
        fill="#000000"
        fill-rule="evenodd"/>
</svg>
