<?xml version="1.0" encoding="UTF-8"?>
<svg xmlns="http://www.w3.org/2000/svg"
     width="440"
     height="640"
     viewBox="0 0 44 64"
     role="img"
     aria-label="Simple black silhouette">
  <path d="M 25 0 L 21 0 L 18 2 L 15 8 L 10 9 L 12 17 L 8 22 L 7 30 L 1 47 L 1 51 L 3 55 L 0 58 L 0 60 L 2 63 L 16 63 L 20 58 L 21 58 L 25 63 L 38 63 L 39 62 L 38 57 L 40 56 L 42 53 L 42 48 L 41 47 L 41 44 L 37 32 L 37 26 L 35 22 L 35 18 L 37 16 L 38 13 L 35 9 L 32 9 L 30 5 Z"
        fill="#000000"
        stroke="#FFFFFF"
        stroke-width="1.5"
        stroke-linejoin="round"
        stroke-linecap="round"/>
</svg>
