<?xml version="1.0" encoding="UTF-8"?>
<svg xmlns="http://www.w3.org/2000/svg"
     width="80"
     height="80"
     viewBox="0 0 80 80">
  <path d="M 0 33 L 0 36 L 1 36 L 6 42 L 6 43 L 7 44 L 7 46 L 9 49 L 10 54 L 11 55 L 11 60 L 10 61 L 10 65 L 68 65 L 69 64 L 69 62 L 68 61 L 68 59 L 67 58 L 68 57 L 68 54 L 69 53 L 69 51 L 70 50 L 71 45 L 74 41 L 74 40 L 79 35 L 79 33 L 76 33 L 75 34 L 70 35 L 67 37 L 66 36 L 66 34 L 65 33 L 65 30 L 61 23 L 60 24 L 59 24 L 59 25 L 56 28 L 56 29 L 53 32 L 53 33 L 52 34 L 49 30 L 48 27 L 46 25 L 44 20 L 42 18 L 42 17 L 40 15 L 40 14 L 38 14 L 38 16 L 36 18 L 35 21 L 33 23 L 31 28 L 29 30 L 29 31 L 27 34 L 22 28 L 22 27 L 18 23 L 16 25 L 16 26 L 14 29 L 14 32 L 13 33 L 13 36 L 12 37 L 7 34 L 4 34 L 3 33 Z"
        fill="#000000"
        fill-rule="evenodd"/>
</svg>
