<?xml version="1.0" encoding="iso-8859-1"?>
<!-- Uploaded to: SVG Repo, www.svgrepo.com, Generator: SVG Repo Mixer Tools -->
<svg fill="#000000" height="800px" width="800px" version="1.1" id="Layer_1" xmlns="http://www.w3.org/2000/svg" xmlns:xlink="http://www.w3.org/1999/xlink" 
	 viewBox="0 0 512.005 512.005" xml:space="preserve">
<g>
	<g>
		<path d="M510.975,262.128L425.642,80.795c-1.067-2.261-2.88-4.075-5.12-5.12l-160-74.667c-2.88-1.344-6.165-1.344-9.045,0
			l-160,74.667c-2.24,1.045-4.053,2.859-5.12,5.12L1.023,262.128c-1.557,3.307-1.301,7.168,0.64,10.261
			c1.941,3.093,5.355,4.949,9.003,4.949h32v224c0,5.888,4.779,10.667,10.667,10.667h53.333v-4.565l149.333-87.531l149.333,87.531
			v4.565h53.333c5.888,0,10.667-4.779,10.667-10.667v-224h32c3.648,0,7.04-1.856,9.003-4.949
			C512.298,269.296,512.533,265.435,510.975,262.128z M191.999,117.339c0-5.888,4.779-10.667,10.667-10.667h106.667
			c5.888,0,10.667,4.779,10.667,10.667v128c0,5.888-4.779,10.667-10.667,10.667H202.666c-5.888,0-10.667-4.779-10.667-10.667
			V117.339z M106.666,482.736V332.379l128.256,75.179L106.666,482.736z M127.743,320.005h256.512l-128.256,75.179L127.743,320.005z
			 M405.333,482.715l-128.256-75.179l128.256-75.179V482.715z"/>
	</g>
</g>
</svg>