<?xml version="1.0" encoding="iso-8859-1"?>
<!-- Uploaded to: SVG Repo, www.svgrepo.com, Generator: SVG Repo Mixer Tools -->
<!DOCTYPE svg PUBLIC "-//W3C//DTD SVG 1.1//EN" "http://www.w3.org/Graphics/SVG/1.1/DTD/svg11.dtd">
<svg fill="#000000" height="800px" width="800px" version="1.1" id="Capa_1" xmlns="http://www.w3.org/2000/svg" xmlns:xlink="http://www.w3.org/1999/xlink" 
	 viewBox="0 0 489.998 489.998" xml:space="preserve">
<g id="XMLID_91_">
	<path id="XMLID_100_" d="M199.732,74.012h0.479c-0.066,0.886-0.274,1.724-0.274,2.629c0,23.574,19.111,42.682,42.717,42.682
		c23.568,0,42.68-19.107,42.68-42.682c0-0.905-0.208-1.743-0.27-2.629h0.48c8.588,0,15.553-6.963,15.553-15.553
		C301.097,26.229,274.877,0,242.635,0c-32.239,0-58.456,26.229-58.456,58.459C184.179,67.049,191.138,74.012,199.732,74.012z
		 M211.531,29.04v4.405c0,4.297,3.48,7.775,7.779,7.775c4.294,0,7.773-3.479,7.773-7.775V18.564
		c2.488-0.969,5.076-1.734,7.779-2.229v17.109c0,4.297,3.48,7.775,7.772,7.775c4.3,0,7.778-3.479,7.778-7.775V16.336
		c2.698,0.494,5.284,1.26,7.773,2.229v14.881c0,4.297,3.486,7.775,7.78,7.775c4.292,0,7.772-3.479,7.772-7.775V29.04
		c7.271,7.688,11.805,17.993,11.805,29.419h-85.812C199.732,47.033,204.269,36.729,211.531,29.04z"/>
	<path id="XMLID_99_" d="M358.121,454.228h-64.596c0.321-1.502,0.91-2.898,0.91-4.496l-0.098-196.127l-0.041,0.009
		c-2.447,0.583-4.871,0.862-7.281,0.862c-11.07,0-21.128-6.075-26.654-15.561h-6.052v19.137c8.7,0.564,14.577,8.184,14.577,15.353
		c0,5.875-3.381,10.81-8.203,13.454c0.206,0.686,0.432,1.357,0.432,2.098c0,3.954-3.005,7.09-6.819,7.585v11.856
		c0,0.01,0,0.025,0,0.025l5.653,0.01c2.842,0,5.539,1.221,7.409,3.352c1.864,2.131,2.714,4.958,2.344,7.77l-10.251,77.739
		l-3.273,24.87c-0.322,2.396-2.361,4.186-4.771,4.186h-0.992v27.879h-15.551V426.35h-1.057c-2.411,0-4.457-1.789-4.775-4.186
		l-3.271-24.807l-10.252-77.803c-0.367-2.812,0.482-5.639,2.346-7.77c1.871-2.131,4.566-3.352,7.408-3.352h5.685
		c0,0,0-0.025,0-0.035v-11.861c-3.796-0.505-6.784-3.636-6.784-7.58c0-0.74,0.227-1.411,0.432-2.098
		c-4.822-2.645-8.209-7.579-8.209-13.454c0-7.169,5.877-14.788,14.579-15.353v-19.137h-6.054
		c-5.52,9.485-15.583,15.561-26.646,15.561c-2.412,0-4.84-0.279-7.281-0.862l-0.129-0.033l-0.018,196.151
		c0,1.598,0.59,2.994,0.91,4.496h-64.588c-9.887,0-17.886,8.007-17.886,17.885c0,9.873,7.999,17.885,17.886,17.885h230.963
		c9.879,0,17.884-8.012,17.884-17.885C376.005,462.235,368,454.228,358.121,454.228z"/>
	<path id="XMLID_98_" d="M345.088,382.219c-1.264,0.216-2.391,0.927-3.145,1.974l-10.396,14.66
		c-1.324,1.857-0.875,4.453,0.989,5.777l17.679,12.563c0.891,0.637,2.009,0.892,3.097,0.709c1.086-0.185,2.058-0.793,2.685-1.693
		l7.615-10.716c3.084-4.356,2.057-10.393-2.296-13.494l-12.621-8.956C347.657,382.301,346.351,382.003,345.088,382.219z"/>
	<path id="XMLID_97_" d="M401.072,340.472l-4.584-12.317c-1.853-5.008-7.421-7.555-12.437-5.693l-14.502,5.389
		c-2.502,0.927-3.784,3.711-2.843,6.219l6.262,16.845c0.801,2.148,3.175,3.244,5.318,2.445l20.344-7.555
		c1.039-0.383,1.864-1.157,2.333-2.162C401.426,342.643,401.456,341.501,401.072,340.472z"/>
	<path id="XMLID_96_" d="M143.091,398.123l-14.502,5.39c-2.502,0.926-3.783,3.714-2.842,6.222l6.262,16.845
		c0.803,2.147,3.176,3.241,5.32,2.441l20.342-7.551c1.039-0.383,1.865-1.157,2.333-2.165c0.46-0.995,0.491-2.138,0.108-3.17
		l-4.585-12.318C153.677,398.81,148.108,396.265,143.091,398.123z"/>
	<path id="XMLID_95_" d="M420.935,427.123l-7.056-5.438c-1.263-0.965-2.843-1.396-4.427-1.19c-1.578,0.206-3,1.029-3.972,2.283
		l-4.312,5.63c-2.029,2.617-1.536,6.379,1.088,8.393l7.056,5.429c0.875,0.677,1.979,0.972,3.079,0.829
		c1.105-0.137,2.094-0.711,2.762-1.588l6.548-8.506C423.11,431.138,422.758,428.521,420.935,427.123z"/>
	<path id="XMLID_94_" d="M81.393,421.685c-1.263-0.965-2.843-1.396-4.426-1.19c-1.579,0.206-3.001,1.029-3.973,2.283l-4.311,5.63
		c-2.03,2.617-1.537,6.379,1.081,8.393l7.062,5.429c0.875,0.677,1.979,0.972,3.078,0.829c1.106-0.137,2.097-0.711,2.763-1.588
		l6.548-8.506c1.408-1.827,1.056-4.444-0.765-5.842L81.393,421.685z"/>
	<path id="XMLID_93_" d="M158.759,321.765l-7.062-5.436c-1.259-0.967-2.843-1.397-4.422-1.191c-1.577,0.209-2.999,1.032-3.978,2.283
		l-4.324,5.63c-2.016,2.619-1.518,6.38,1.1,8.392l7.058,5.43c0.88,0.677,1.978,0.975,3.083,0.829c1.1-0.134,2.09-0.711,2.764-1.589
		l6.547-8.502C160.928,325.782,160.574,323.162,158.759,321.765z"/>
	<path id="XMLID_92_" d="M138.672,227.872l55.309,13.245c1.421,0.337,2.86,0.504,4.263,0.504c3.869,0,7.506-1.324,10.555-3.504
		c3.449-2.469,6.115-6.051,7.191-10.51c1.767-7.408-1.282-14.816-7.095-19.025c-1.881-1.356-4.025-2.402-6.417-2.975l-24.46-5.855
		l10.262-10.761l2.574-2.709v3.322l14.624,3.503c8.624,2.068,15.49,7.579,19.608,14.7h5.898v-10.521
		c0.01-6.443,5.232-11.666,11.67-11.666c6.449,0,11.672,5.223,11.672,11.666v10.521h5.86c4.118-7.121,10.985-12.632,19.608-14.7
		l14.543-3.479v-3.425l2.654,2.788l10.27,10.761l-24.468,5.855c-2.392,0.572-4.528,1.618-6.419,2.975
		c-5.811,4.209-8.858,11.617-7.086,19.025c1.068,4.459,3.734,8.041,7.185,10.51c3.048,2.18,6.692,3.504,10.555,3.504
		c1.407,0,2.841-0.167,4.262-0.504l55.317-13.245c6.351-1.524,11.416-6.321,13.249-12.582c1.853-6.268,0.225-13.045-4.294-17.772
		l-17.244-18.084l-43.852-46.004c-4.178-4.415-8.235-5.9-19.221-5.9h-65.293c-11.102,0-14.98,1.493-19.148,5.9l-43.85,46.004
		l-17.246,18.084c-4.519,4.728-6.146,11.505-4.294,17.772C127.254,221.551,132.313,226.348,138.672,227.872z"/>
</g>
</svg>