<?xml version="1.0" encoding="utf-8"?>
<!-- Uploaded to: SVG Repo, www.svgrepo.com, Generator: SVG Repo Mixer Tools -->
<svg fill="#000000" width="800px" height="800px" viewBox="0 0 32 32" version="1.1" xmlns="http://www.w3.org/2000/svg">
<title>mine-wagon</title>
<path d="M28.953 13.468v-3.984h-1.584c-1.084-1.974-1.974-4.761-4.406-6.198-2.788 0.054-5.35 3.214-7.987 4.326-1.025-1.182-2.655-2.090-4.992-1.872-2.269 0.211-3.445 1.935-4.47 3.744h-3.517v3.984h1.062l2.423 9.164c-0.16-0.029-0.323-0.044-0.49-0.044-1.654 0-2.995 1.467-2.995 3.276s1.341 3.276 2.995 3.276c1.653 0 2.993-1.464 2.995-3.272h3.932c0.002 1.807 1.342 3.272 2.995 3.272s2.993-1.464 2.995-3.272h7.398l0.295-1.408h3.351v-2.808h-2.763l1.714-8.184h1.049z"></path>
</svg>