<?xml version="1.0" encoding="UTF-8"?>
<svg xmlns="http://www.w3.org/2000/svg"
     width="414"
     height="546"
     viewBox="0 0 414 546"
     role="img"
     aria-label="Sharpened blue tiered silhouette">
  <path
    fill="#1479BC"
    d="
      M 116 43
      Q 110 48 110 59
      L 121 181
      L 89 181
      Q 76 181 69 192
      L 61 206
      L 70 219
      Q 77 230 90 230
      L 123 230
      L 123 287
      L 93 287
      Q 80 287 71 298
      L 43 338
      L 62 357
      L 111 357
      L 91 412
      L 64 483
      Q 61 494 72 501
      L 151 501
      L 172 462
      L 172 430
      L 209 430
      L 209 462
      L 230 501
      L 339 501
      Q 350 494 347 483
      L 320 412
      L 300 357
      L 349 357
      L 368 338
      L 340 298
      Q 331 287 318 287
      L 288 287
      L 288 230
      L 321 230
      Q 334 230 341 219
      L 350 206
      L 342 192
      Q 335 181 322 181
      L 290 181
      L 301 59
      Q 301 48 295 43
      Z
    "/>
</svg>
