<?xml version="1.0" encoding="UTF-8"?>
<svg xmlns="http://www.w3.org/2000/svg"
     width="550"
     height="486"
     viewBox="0 0 550 486"
     role="img"
     aria-label="Sharpened light-blue rounded figure silhouette">
  <path
    fill="#79B6DC"
    d="
      M 239 46
      Q 275 24 311 46
      Q 337 61 346 89
      L 346 126
      L 382 126
      Q 399 126 414 138
      L 474 186
      Q 487 197 487 214
      L 487 230
      Q 487 246 471 246
      L 393 246
      L 393 286
      L 430 320
      Q 454 343 463 381
      L 463 428
      Q 463 443 448 443
      L 337 443
      L 306 401
      L 306 364
      L 268 364
      L 268 401
      L 237 443
      L 102 443
      Q 87 443 87 428
      L 87 381
      Q 96 343 120 320
      L 157 286
      L 157 246
      L 79 246
      Q 63 246 63 230
      L 63 214
      Q 63 197 76 186
      L 136 138
      Q 151 126 168 126
      L 204 126
      L 204 89
      Q 213 61 239 46
      Z
    "/>
</svg>
