<?xml version="1.0" encoding="UTF-8"?>
<svg xmlns="http://www.w3.org/2000/svg"
     width="694"
     height="496"
     viewBox="0 0 694 496"
     role="img"
     aria-label="Sharpened blue asymmetrical figure silhouette">
  <path
    fill="#1479BC"
    d="
      M 380 43
      Q 397 34 414 43
      Q 433 53 439 74
      L 439 119
      L 489 119
      Q 505 119 519 129
      L 578 170
      Q 591 179 595 194
      L 598 208
      Q 600 224 584 224
      L 520 224
      L 520 267
      L 551 295
      Q 576 318 588 357
      L 588 421
      Q 588 436 573 436
      L 445 436
      L 416 398
      L 416 352
      L 378 352
      L 378 398
      L 349 436
      L 202 436
      Q 187 436 187 421
      L 187 382
      Q 195 344 216 316
      L 251 268
      L 251 228
      L 138 228
      Q 116 228 100 214
      L 73 189
      Q 61 178 64 162
      L 70 132
      L 103 96
      L 122 88
      L 126 159
      L 157 159
      L 157 147
      L 190 147
      L 190 160
      L 222 160
      Q 236 160 247 151
      L 292 119
      Q 306 109 322 109
      L 355 109
      L 355 74
      Q 361 53 380 43
      Z
    "/>
</svg>
