<?xml version="1.0" encoding="UTF-8"?>
<svg xmlns="http://www.w3.org/2000/svg"
     width="468"
     height="468"
     viewBox="0 0 468 468"
     role="img"
     aria-label="Sharpened blue rounded figure silhouette">
  <path
    fill="#1479BC"
    d="
      M 204 48
      Q 234 34 264 48
      Q 286 59 294 82
      L 294 119
      L 329 119
      Q 345 119 358 130
      L 405 171
      Q 417 181 417 197
      L 417 212
      Q 417 227 402 227
      L 337 227
      L 337 269
      L 371 299
      Q 396 322 407 359
      L 407 390
      Q 407 404 393 404
      L 286 404
      L 257 365
      L 257 330
      L 211 330
      L 211 365
      L 182 404
      L 75 404
      Q 61 404 61 390
      L 61 359
      Q 72 322 97 299
      L 131 269
      L 131 227
      L 66 227
      Q 51 227 51 212
      L 51 197
      Q 51 181 63 171
      L 110 130
      Q 123 119 139 119
      L 174 119
      L 174 82
      Q 182 59 204 48
      Z
    "/>
</svg>
