<?xml version="1.0" encoding="UTF-8"?>
<svg xmlns="http://www.w3.org/2000/svg"
     width="80"
     height="80"
     viewBox="0 0 80 80">
  <path d="M 70 10 L 63 10 L 62 9 L 57 9 L 56 10 L 55 10 L 51 15 L 50 15 L 49 16 L 47 16 L 45 18 L 44 17 L 42 17 L 41 16 L 39 16 L 38 17 L 35 17 L 32 19 L 29 17 L 22 17 L 19 19 L 18 18 L 14 18 L 13 19 L 11 19 L 10 20 L 9 20 L 8 21 L 7 24 L 6 25 L 3 26 L 1 28 L 1 29 L 0 30 L 0 40 L 1 41 L 3 41 L 3 40 L 4 39 L 4 35 L 5 34 L 5 32 L 6 31 L 7 32 L 7 35 L 6 36 L 6 41 L 8 44 L 8 48 L 9 49 L 9 50 L 12 53 L 11 54 L 11 59 L 12 60 L 12 63 L 13 64 L 13 68 L 14 69 L 14 70 L 19 70 L 19 69 L 17 67 L 17 65 L 16 64 L 16 58 L 19 54 L 21 54 L 22 55 L 21 56 L 21 58 L 22 59 L 22 62 L 23 63 L 23 67 L 25 69 L 28 69 L 29 68 L 27 65 L 27 62 L 26 61 L 26 58 L 27 57 L 27 55 L 28 54 L 30 54 L 31 55 L 36 55 L 39 53 L 41 56 L 41 62 L 42 63 L 42 68 L 48 68 L 47 67 L 47 65 L 46 64 L 46 61 L 45 60 L 45 55 L 46 54 L 49 54 L 50 55 L 50 60 L 51 61 L 51 67 L 52 68 L 52 70 L 57 70 L 57 69 L 55 66 L 55 60 L 54 59 L 54 55 L 57 51 L 57 48 L 61 44 L 61 43 L 62 42 L 62 40 L 63 39 L 63 37 L 68 31 L 69 31 L 72 33 L 74 33 L 75 34 L 76 33 L 78 33 L 79 32 L 79 25 L 76 21 L 76 20 L 73 17 L 73 14 Z"
        fill="#000000"
        fill-rule="evenodd"/>
</svg>
