<?xml version="1.0" encoding="UTF-8"?>
<svg xmlns="http://www.w3.org/2000/svg"
     width="80"
     height="80"
     viewBox="0 0 80 80">
  <path d="M 59 1 L 57 1 L 54 4 L 53 4 L 52 5 L 51 5 L 47 1 L 46 1 L 45 0 L 43 0 L 42 1 L 40 1 L 37 4 L 36 4 L 34 6 L 31 6 L 28 4 L 21 4 L 20 5 L 21 6 L 21 9 L 23 11 L 23 12 L 25 14 L 25 15 L 28 18 L 28 19 L 27 20 L 27 24 L 28 25 L 27 26 L 26 26 L 24 28 L 23 28 L 17 34 L 17 35 L 15 37 L 15 38 L 13 41 L 13 43 L 12 44 L 12 46 L 11 47 L 11 51 L 10 52 L 10 75 L 12 77 L 13 77 L 14 78 L 17 78 L 18 79 L 63 79 L 66 77 L 66 76 L 67 75 L 67 72 L 68 71 L 68 61 L 67 60 L 67 54 L 66 53 L 66 49 L 65 48 L 65 45 L 64 44 L 64 43 L 63 42 L 63 41 L 62 40 L 61 37 L 58 34 L 58 33 L 51 26 L 51 25 L 52 24 L 52 20 L 51 19 L 51 18 L 56 14 L 56 13 L 59 10 L 59 9 L 60 8 L 60 3 L 59 2 Z"
        fill="#000000"
        fill-rule="evenodd"/>
</svg>
