<?xml version="1.0" encoding="UTF-8"?>
<svg xmlns="http://www.w3.org/2000/svg"
     width="80"
     height="80"
     viewBox="0 0 80 80">
  <path d="M 29 1 L 27 3 L 26 3 L 23 7 L 23 10 L 26 13 L 27 13 L 28 14 L 28 18 L 25 21 L 24 21 L 23 22 L 21 22 L 21 23 L 19 25 L 19 26 L 16 31 L 16 33 L 15 34 L 15 37 L 13 40 L 13 43 L 12 44 L 12 47 L 11 48 L 11 51 L 10 52 L 10 54 L 9 55 L 9 64 L 11 66 L 11 67 L 12 68 L 13 68 L 16 71 L 16 78 L 17 79 L 33 79 L 35 77 L 36 74 L 39 71 L 40 72 L 41 75 L 45 79 L 61 79 L 61 71 L 63 69 L 64 69 L 68 65 L 68 64 L 69 63 L 69 57 L 68 56 L 68 54 L 67 53 L 67 50 L 66 49 L 66 47 L 65 46 L 65 43 L 64 42 L 64 39 L 63 38 L 63 36 L 62 35 L 61 30 L 60 29 L 58 24 L 56 22 L 54 22 L 50 19 L 50 16 L 49 15 L 49 14 L 50 13 L 51 13 L 55 9 L 55 8 L 54 7 L 54 6 L 51 3 L 50 3 L 46 0 L 32 0 L 31 1 Z"
        fill="#000000"
        fill-rule="evenodd"/>
</svg>
