<?xml version="1.0" encoding="UTF-8"?>
<svg xmlns="http://www.w3.org/2000/svg"
     width="80"
     height="80"
     viewBox="0 0 80 80">
  <path d="M 34 0 L 34 5 L 33 6 L 32 6 L 30 4 L 30 7 L 31 8 L 31 10 L 32 11 L 31 12 L 30 12 L 27 10 L 27 12 L 28 13 L 28 15 L 29 16 L 29 17 L 31 19 L 30 20 L 29 20 L 27 18 L 26 18 L 26 20 L 27 21 L 27 23 L 28 24 L 28 25 L 30 27 L 30 28 L 29 29 L 27 27 L 26 27 L 26 29 L 27 30 L 27 32 L 28 33 L 28 34 L 30 36 L 30 37 L 29 38 L 27 36 L 26 36 L 26 37 L 27 38 L 27 40 L 28 41 L 28 43 L 30 45 L 29 46 L 26 45 L 26 47 L 27 48 L 27 50 L 28 51 L 28 52 L 30 54 L 30 55 L 31 56 L 32 56 L 37 59 L 37 62 L 36 63 L 36 65 L 37 66 L 37 70 L 38 71 L 39 74 L 44 78 L 46 78 L 47 79 L 52 79 L 52 76 L 50 76 L 49 75 L 47 75 L 46 74 L 45 74 L 42 71 L 42 70 L 41 69 L 41 66 L 40 65 L 40 61 L 41 60 L 40 59 L 41 58 L 43 58 L 44 57 L 45 57 L 49 53 L 49 52 L 50 51 L 50 49 L 52 46 L 52 45 L 51 45 L 50 46 L 49 46 L 48 45 L 50 42 L 50 40 L 51 39 L 51 37 L 52 36 L 51 36 L 50 37 L 49 37 L 48 36 L 49 35 L 49 34 L 50 33 L 50 31 L 52 28 L 52 27 L 51 27 L 50 28 L 49 28 L 48 27 L 49 26 L 49 25 L 50 24 L 50 22 L 52 19 L 52 18 L 51 18 L 50 19 L 49 19 L 48 18 L 48 17 L 50 14 L 50 12 L 51 11 L 51 10 L 48 12 L 47 12 L 46 11 L 47 10 L 47 9 L 48 8 L 48 6 L 49 5 L 47 5 L 45 7 L 44 7 L 43 6 L 43 5 L 44 4 L 44 0 L 43 0 L 40 3 L 40 4 L 39 5 L 38 4 L 38 3 L 35 0 Z M 39 47 L 40 48 L 40 49 L 41 49 L 42 50 L 40 52 L 40 53 L 39 54 L 37 52 L 37 51 L 36 50 Z M 47 46 L 48 45 L 49 46 L 48 47 Z M 38 39 L 39 39 L 42 41 L 40 43 L 40 44 L 39 45 L 37 43 L 37 42 L 36 41 Z M 47 37 L 48 36 L 49 37 L 48 38 Z M 38 30 L 39 30 L 42 32 L 40 34 L 40 35 L 39 36 L 37 34 L 37 33 L 36 32 Z M 47 28 L 48 27 L 49 28 L 48 29 Z M 47 19 L 48 18 L 49 19 L 48 20 Z M 39 13 L 42 15 L 40 17 L 40 22 L 41 22 L 42 23 L 40 25 L 40 26 L 39 27 L 37 25 L 37 24 L 36 23 L 38 21 L 38 18 L 36 15 Z M 45 12 L 46 11 L 47 12 L 46 13 Z M 31 12 L 32 11 L 33 12 L 32 13 Z M 39 7 L 41 9 L 39 12 L 37 9 Z M 33 6 L 34 5 L 35 6 L 34 7 Z"
        fill="#000000"
        fill-rule="evenodd"/>
</svg>
