<?xml version="1.0" encoding="UTF-8"?>
<svg xmlns="http://www.w3.org/2000/svg"
     width="80"
     height="80"
     viewBox="0 0 80 80">
  <path d="M 39 0 L 39 1 L 38 2 L 38 4 L 37 5 L 37 7 L 36 8 L 36 10 L 35 11 L 35 13 L 34 14 L 34 16 L 33 17 L 33 19 L 32 20 L 32 22 L 31 23 L 31 25 L 30 26 L 30 28 L 29 29 L 29 32 L 28 33 L 28 35 L 27 36 L 27 38 L 26 39 L 26 41 L 25 42 L 25 44 L 24 45 L 24 47 L 23 48 L 23 50 L 22 51 L 22 53 L 21 54 L 21 56 L 20 57 L 19 62 L 18 63 L 15 63 L 14 64 L 11 64 L 10 65 L 8 65 L 7 66 L 4 67 L 2 69 L 2 72 L 4 74 L 5 74 L 8 76 L 10 76 L 11 77 L 15 77 L 16 78 L 21 78 L 22 79 L 56 79 L 57 78 L 62 78 L 63 77 L 66 77 L 67 76 L 70 76 L 71 75 L 74 74 L 76 72 L 76 69 L 74 67 L 73 67 L 70 65 L 68 65 L 67 64 L 64 64 L 63 63 L 60 63 L 59 62 L 59 61 L 58 60 L 58 58 L 57 57 L 57 55 L 56 54 L 56 52 L 55 51 L 55 49 L 54 48 L 54 45 L 53 44 L 53 42 L 52 41 L 52 39 L 51 38 L 51 36 L 50 35 L 50 33 L 49 32 L 49 30 L 48 29 L 48 27 L 47 26 L 47 24 L 46 23 L 46 21 L 45 20 L 45 18 L 44 17 L 44 15 L 43 14 L 43 12 L 42 11 L 42 9 L 41 8 L 41 6 L 40 5 L 40 2 L 39 1 Z"
        fill="#000000"
        fill-rule="evenodd"/>
</svg>
