<?xml version="1.0" encoding="UTF-8"?>
<svg xmlns="http://www.w3.org/2000/svg"
     width="80"
     height="80"
     viewBox="0 0 80 80">
  <path d="M 33 71 L 32 72 L 32 73 L 33 72 Z M 0 30 L 1 31 L 1 34 L 2 35 L 2 40 L 3 41 L 4 44 L 7 47 L 8 50 L 11 51 L 14 54 L 15 54 L 18 56 L 22 56 L 23 57 L 58 57 L 59 56 L 63 56 L 64 55 L 66 55 L 67 54 L 69 54 L 70 55 L 73 56 L 74 57 L 74 58 L 77 58 L 77 56 L 75 54 L 75 52 L 73 50 L 75 47 L 75 44 L 76 43 L 76 41 L 77 40 L 77 38 L 78 37 L 78 34 L 79 33 L 79 30 L 73 30 L 73 34 L 71 36 L 70 36 L 69 37 L 64 37 L 63 38 L 62 38 L 54 30 L 54 29 L 44 19 L 44 18 L 41 18 L 41 20 L 42 21 L 43 24 L 46 27 L 46 28 L 54 36 L 54 38 L 53 39 L 28 39 L 27 38 L 19 38 L 18 37 L 15 37 L 14 36 L 12 36 L 11 35 L 8 34 L 6 31 L 6 30 L 7 29 L 1 29 Z"
        fill="#000000"
        fill-rule="evenodd"/>
</svg>
