<?xml version="1.0" encoding="UTF-8"?>
<svg xmlns="http://www.w3.org/2000/svg"
     width="80"
     height="80"
     viewBox="0 0 80 80">
  <path d="M 0 37 L 1 38 L 1 44 L 2 45 L 2 46 L 3 46 L 4 45 L 5 46 L 7 46 L 8 47 L 12 47 L 13 48 L 14 48 L 17 51 L 18 51 L 23 56 L 23 57 L 24 58 L 30 58 L 34 52 L 36 52 L 37 53 L 47 53 L 48 52 L 49 53 L 49 55 L 51 58 L 57 58 L 58 57 L 58 56 L 60 54 L 60 53 L 62 51 L 63 51 L 66 48 L 66 47 L 68 45 L 68 44 L 70 41 L 70 39 L 71 38 L 74 38 L 75 37 L 75 36 L 76 35 L 77 35 L 79 33 L 79 30 L 78 29 L 76 29 L 76 30 L 75 31 L 74 30 L 72 30 L 70 33 L 69 32 L 68 29 L 65 26 L 64 26 L 63 25 L 62 25 L 57 22 L 54 22 L 53 21 L 38 21 L 37 22 L 34 22 L 33 23 L 31 23 L 28 25 L 25 25 L 24 26 L 21 26 L 20 25 L 20 23 L 19 23 L 18 22 L 16 22 L 15 21 L 13 21 L 13 24 L 14 25 L 14 26 L 12 28 L 12 29 L 10 31 L 9 31 L 8 32 L 6 32 L 5 31 L 0 31 Z M 75 31 L 76 30 L 77 30 L 78 31 L 78 32 L 77 33 L 76 33 L 75 32 Z"
        fill="#000000"
        fill-rule="evenodd"/>
</svg>
