<?xml version="1.0" encoding="iso-8859-1"?>
<!-- Uploaded to: SVG Repo, www.svgrepo.com, Generator: SVG Repo Mixer Tools -->
<!DOCTYPE svg PUBLIC "-//W3C//DTD SVG 1.1//EN" "http://www.w3.org/Graphics/SVG/1.1/DTD/svg11.dtd">
<svg fill="#000000" version="1.1" id="Capa_1" xmlns="http://www.w3.org/2000/svg" xmlns:xlink="http://www.w3.org/1999/xlink" 
	 width="800px" height="800px" viewBox="0 0 45.563 45.562"
	 xml:space="preserve">
<g>
	<g>
		<path d="M18.407,7.816c1.41-0.566,2.873-0.876,4.375-0.876c1.501,0,2.965,0.312,4.374,0.879l2.354-4.373
			c0.393-0.728,0.372-1.601-0.052-2.31C29.035,0.428,28.272,0,27.446,0h-9.327c-0.827,0-1.591,0.428-2.014,1.136
			c-0.424,0.709-0.443,1.585-0.052,2.313L18.407,7.816z"/>
		<path d="M42.664,40.727c-0.453-0.812-1.217-1.602-2.207-2.25c0.258-0.994,0.395-2.127,0.395-3.42
			c0-9.979-8.09-25.637-18.069-25.637C12.801,9.42,4.71,25.076,4.71,35.057c0,1.293,0.137,2.426,0.396,3.42
			c-0.99,0.648-1.754,1.438-2.207,2.25c-0.48,0.858-0.612,1.743-0.295,2.516c0.458,1.107,1.741,1.728,3.342,1.779
			c1.064,0.033,2.269-0.184,3.465-0.677c0.213-0.087,0.418-0.182,0.62-0.282c3.268,1.369,7.774,1.5,12.751,1.5
			c4.976,0,9.481-0.131,12.75-1.5c0.201,0.101,0.407,0.194,0.62,0.282c1.196,0.493,2.4,0.71,3.465,0.677
			c1.602-0.053,2.885-0.672,3.342-1.779C43.276,42.47,43.143,41.585,42.664,40.727z M11.728,26.877
			c-0.879,0-1.592-0.713-1.592-1.592c0-0.88,0.712-1.594,1.592-1.594c0.88,0,1.593,0.714,1.593,1.594
			C13.321,26.164,12.609,26.877,11.728,26.877z M20.391,15.771c-0.039,0.029-3.948,2.927-5.586,5.962
			c-0.292,0.542-0.851,0.851-1.428,0.851c-0.261,0-0.524-0.062-0.768-0.195c-0.788-0.425-1.082-1.408-0.657-2.197
			c1.988-3.683,6.337-6.9,6.521-7.035c0.721-0.529,1.733-0.374,2.265,0.347C21.267,14.226,21.113,15.241,20.391,15.771z"/>
	</g>
</g>
</svg>